<svg xmlns="http://www.w3.org/2000/svg" width="279" height="39" viewBox="0 0 279 39" fill="none">
    <path d="M25.9718 13.3C25.8418 13.3 25.7118 13.27 25.5918 13.2L16.7619 8.09002C16.4019 7.88002 16.2818 7.41999 16.4918 7.05999C16.7018 6.69999 17.1518 6.57997 17.5218 6.78997L25.9718 11.68L34.3718 6.82C34.7318 6.61 35.1918 6.74002 35.4018 7.09002C35.6118 7.45002 35.4818 7.90999 35.1318 8.11999L26.3619 13.2C26.2319 13.26 26.1018 13.3 25.9718 13.3Z" fill="#1C1B1B"/>
    <path d="M25.972 22.36C25.562 22.36 25.222 22.02 25.222 21.61V12.54C25.222 12.13 25.562 11.79 25.972 11.79C26.382 11.79 26.722 12.13 26.722 12.54V21.61C26.722 22.02 26.382 22.36 25.972 22.36Z" fill="#1C1B1B"/>
    <path d="M25.9721 22.75C25.0921 22.75 24.2221 22.56 23.5321 22.18L18.1921 19.21C16.7421 18.41 15.6121 16.48 15.6121 14.82V9.16998C15.6121 7.50998 16.7421 5.59002 18.1921 4.78002L23.5321 1.82C24.9021 1.06 27.0421 1.06 28.4121 1.82L33.7521 4.78997C35.2021 5.58997 36.3321 7.51999 36.3321 9.17999V14.83C36.3321 16.49 35.2021 18.41 33.7521 19.22L28.4121 22.18C27.7221 22.56 26.8521 22.75 25.9721 22.75ZM25.9721 2.74999C25.3421 2.74999 24.7221 2.88 24.2621 3.13L18.9221 6.09997C17.9621 6.63997 17.1121 8.06999 17.1121 9.17999V14.83C17.1121 15.93 17.9621 17.37 18.9221 17.91L24.2621 20.88C25.1721 21.39 26.7721 21.39 27.6821 20.88L33.0221 17.91C33.9821 17.37 34.8321 15.94 34.8321 14.83V9.17999C34.8321 8.07998 33.9821 6.63997 33.0221 6.09997L27.6821 3.13C27.2221 2.88 26.6021 2.74999 25.9721 2.74999Z" fill="#1C1B1B"/>
    <path d="M30.9722 13.99C30.5622 13.99 30.2222 13.65 30.2222 13.24V10.0201L21.1022 4.76007C20.7422 4.55007 20.6222 4.09005 20.8322 3.74005C21.0422 3.38005 21.4922 3.26003 21.8522 3.47003L31.3422 8.95007C31.5722 9.08007 31.7222 9.33003 31.7222 9.60003V13.2601C31.7222 13.6501 31.3822 13.99 30.9722 13.99Z" fill="#1C1B1B"/>
    <path d="M3.528 36.144C2.968 36.144 2.448 36.04 1.968 35.832C1.488 35.616 1.08 35.324 0.744 34.956C0.408 34.588 0.16 34.164 0 33.684L1.2 33.18C1.416 33.732 1.732 34.156 2.148 34.452C2.564 34.748 3.044 34.896 3.588 34.896C3.908 34.896 4.188 34.848 4.428 34.752C4.668 34.648 4.852 34.504 4.98 34.32C5.116 34.136 5.184 33.924 5.184 33.684C5.184 33.356 5.092 33.096 4.908 32.904C4.724 32.712 4.452 32.56 4.092 32.448L2.412 31.92C1.74 31.712 1.228 31.396 0.876 30.972C0.524 30.54 0.348 30.036 0.348 29.46C0.348 28.956 0.472 28.516 0.72 28.14C0.968 27.756 1.308 27.456 1.74 27.24C2.18 27.024 2.68 26.916 3.24 26.916C3.776 26.916 4.264 27.012 4.704 27.204C5.144 27.388 5.52 27.644 5.832 27.972C6.152 28.3 6.384 28.68 6.528 29.112L5.352 29.628C5.176 29.156 4.9 28.792 4.524 28.536C4.156 28.28 3.728 28.152 3.24 28.152C2.944 28.152 2.684 28.204 2.46 28.308C2.236 28.404 2.06 28.548 1.932 28.74C1.812 28.924 1.752 29.14 1.752 29.388C1.752 29.676 1.844 29.932 2.028 30.156C2.212 30.38 2.492 30.548 2.868 30.66L4.428 31.152C5.14 31.368 5.676 31.68 6.036 32.088C6.396 32.488 6.576 32.988 6.576 33.588C6.576 34.084 6.444 34.524 6.18 34.908C5.924 35.292 5.568 35.596 5.112 35.82C4.656 36.036 4.128 36.144 3.528 36.144Z" fill="#1C1B1B"/>
    <path d="M8.09353 36V26.916H9.44953V30.78L9.23353 30.612C9.39353 30.204 9.64953 29.896 10.0015 29.688C10.3535 29.472 10.7615 29.364 11.2255 29.364C11.7055 29.364 12.1295 29.468 12.4975 29.676C12.8655 29.884 13.1535 30.172 13.3615 30.54C13.5695 30.908 13.6735 31.328 13.6735 31.8V36H12.3295V32.172C12.3295 31.844 12.2655 31.568 12.1375 31.344C12.0175 31.112 11.8495 30.936 11.6335 30.816C11.4175 30.688 11.1695 30.624 10.8895 30.624C10.6175 30.624 10.3695 30.688 10.1455 30.816C9.92953 30.936 9.75753 31.112 9.62953 31.344C9.50953 31.576 9.44953 31.852 9.44953 32.172V36H8.09353Z" fill="#1C1B1B"/>
    <path d="M15.1848 36V29.508H16.5408V36H15.1848ZM15.1848 28.62V27.06H16.5408V28.62H15.1848Z" fill="#1C1B1B"/>
    <path d="M18.1862 38.4V29.508H19.4822V30.852L19.3262 30.54C19.5662 30.172 19.8862 29.884 20.2862 29.676C20.6862 29.468 21.1422 29.364 21.6542 29.364C22.2702 29.364 22.8222 29.512 23.3102 29.808C23.8062 30.104 24.1942 30.508 24.4742 31.02C24.7622 31.532 24.9062 32.108 24.9062 32.748C24.9062 33.388 24.7622 33.964 24.4742 34.476C24.1942 34.988 23.8102 35.396 23.3222 35.7C22.8342 35.996 22.2782 36.144 21.6542 36.144C21.1502 36.144 20.6902 36.04 20.2742 35.832C19.8662 35.624 19.5502 35.324 19.3262 34.932L19.5422 34.68V38.4H18.1862ZM21.5222 34.884C21.9062 34.884 22.2462 34.792 22.5422 34.608C22.8382 34.424 23.0702 34.172 23.2382 33.852C23.4142 33.524 23.5022 33.156 23.5022 32.748C23.5022 32.34 23.4142 31.976 23.2382 31.656C23.0702 31.336 22.8382 31.084 22.5422 30.9C22.2462 30.716 21.9062 30.624 21.5222 30.624C21.1462 30.624 20.8062 30.716 20.5022 30.9C20.2062 31.084 19.9702 31.336 19.7942 31.656C19.6262 31.976 19.5422 32.34 19.5422 32.748C19.5422 33.156 19.6262 33.524 19.7942 33.852C19.9702 34.172 20.2062 34.424 20.5022 34.608C20.8062 34.792 21.1462 34.884 21.5222 34.884Z" fill="#1C1B1B"/>
    <path d="M26.2852 38.4V29.508H27.5812V30.852L27.4252 30.54C27.6652 30.172 27.9853 29.884 28.3853 29.676C28.7852 29.468 29.2412 29.364 29.7533 29.364C30.3692 29.364 30.9212 29.512 31.4093 29.808C31.9053 30.104 32.2933 30.508 32.5732 31.02C32.8613 31.532 33.0052 32.108 33.0052 32.748C33.0052 33.388 32.8613 33.964 32.5732 34.476C32.2933 34.988 31.9092 35.396 31.4212 35.7C30.9333 35.996 30.3773 36.144 29.7533 36.144C29.2493 36.144 28.7892 36.04 28.3732 35.832C27.9652 35.624 27.6493 35.324 27.4252 34.932L27.6413 34.68V38.4H26.2852ZM29.6213 34.884C30.0053 34.884 30.3453 34.792 30.6413 34.608C30.9373 34.424 31.1693 34.172 31.3372 33.852C31.5133 33.524 31.6012 33.156 31.6012 32.748C31.6012 32.34 31.5133 31.976 31.3372 31.656C31.1693 31.336 30.9373 31.084 30.6413 30.9C30.3453 30.716 30.0053 30.624 29.6213 30.624C29.2453 30.624 28.9053 30.716 28.6012 30.9C28.3053 31.084 28.0693 31.336 27.8932 31.656C27.7253 31.976 27.6413 32.34 27.6413 32.748C27.6413 33.156 27.7253 33.524 27.8932 33.852C28.0693 34.172 28.3053 34.424 28.6012 34.608C28.9053 34.792 29.2453 34.884 29.6213 34.884Z" fill="#1C1B1B"/>
    <path d="M34.3843 36V29.508H35.7403V36H34.3843ZM34.3843 28.62V27.06H35.7403V28.62H34.3843Z" fill="#1C1B1B"/>
    <path d="M37.3857 36V29.508H38.6817V30.78L38.5257 30.612C38.6857 30.204 38.9417 29.896 39.2937 29.688C39.6457 29.472 40.0537 29.364 40.5177 29.364C40.9977 29.364 41.4217 29.468 41.7897 29.676C42.1577 29.884 42.4457 30.172 42.6537 30.54C42.8617 30.908 42.9657 31.332 42.9657 31.812V36H41.6217V32.172C41.6217 31.844 41.5617 31.568 41.4417 31.344C41.3217 31.112 41.1497 30.936 40.9257 30.816C40.7097 30.688 40.4617 30.624 40.1817 30.624C39.9017 30.624 39.6497 30.688 39.4257 30.816C39.2097 30.936 39.0417 31.112 38.9217 31.344C38.8017 31.576 38.7417 31.852 38.7417 32.172V36H37.3857Z" fill="#1C1B1B"/>
    <path d="M47.609 38.64C47.137 38.64 46.701 38.564 46.301 38.412C45.901 38.26 45.557 38.048 45.269 37.776C44.981 37.512 44.765 37.2 44.621 36.84L45.869 36.324C45.981 36.628 46.185 36.88 46.481 37.08C46.785 37.28 47.157 37.38 47.597 37.38C47.941 37.38 48.249 37.312 48.521 37.176C48.793 37.048 49.009 36.856 49.169 36.6C49.329 36.352 49.409 36.052 49.409 35.7V34.236L49.649 34.512C49.425 34.928 49.113 35.244 48.713 35.46C48.321 35.676 47.877 35.784 47.381 35.784C46.781 35.784 46.241 35.644 45.761 35.364C45.281 35.084 44.901 34.7 44.621 34.212C44.349 33.724 44.213 33.176 44.213 32.568C44.213 31.952 44.349 31.404 44.621 30.924C44.901 30.444 45.277 30.064 45.749 29.784C46.221 29.504 46.761 29.364 47.369 29.364C47.865 29.364 48.305 29.472 48.689 29.688C49.081 29.896 49.401 30.2 49.649 30.6L49.469 30.936V29.508H50.753V35.7C50.753 36.26 50.617 36.76 50.345 37.2C50.081 37.648 49.713 38 49.241 38.256C48.769 38.512 48.225 38.64 47.609 38.64ZM47.537 34.524C47.897 34.524 48.217 34.44 48.497 34.272C48.777 34.096 48.997 33.864 49.157 33.576C49.325 33.28 49.409 32.948 49.409 32.58C49.409 32.212 49.325 31.88 49.157 31.584C48.989 31.288 48.765 31.056 48.485 30.888C48.205 30.712 47.889 30.624 47.537 30.624C47.169 30.624 46.841 30.712 46.553 30.888C46.265 31.056 46.037 31.288 45.869 31.584C45.709 31.872 45.629 32.204 45.629 32.58C45.629 32.94 45.709 33.268 45.869 33.564C46.037 33.86 46.265 34.096 46.553 34.272C46.841 34.44 47.169 34.524 47.537 34.524Z" fill="#1C1B1B"/>
    <path d="M154.472 10.75H134.472C134.062 10.75 133.722 10.41 133.722 10C133.722 9.59 134.062 9.25 134.472 9.25H154.472C154.882 9.25 155.222 9.59 155.222 10C155.222 10.41 154.882 10.75 154.472 10.75Z" fill="#6F7384"/>
    <path d="M144.022 21.25H138.912C134.932 21.25 133.712 20.05 133.712 16.11V7.89001C133.712 4.74001 134.382 2.99001 137.952 2.78001C138.252 2.77001 138.572 2.76001 138.912 2.76001H150.022C154.002 2.76001 155.222 3.96001 155.222 7.90001V12.31C155.222 12.72 154.882 13.06 154.472 13.06C154.062 13.06 153.722 12.72 153.722 12.31V7.90001C153.722 4.81001 153.172 4.26001 150.022 4.26001H138.912C138.592 4.26001 138.302 4.27001 138.022 4.28001C135.852 4.41001 135.212 4.90001 135.212 7.90001V16.12C135.212 19.21 135.762 19.76 138.912 19.76H144.022C144.432 19.76 144.772 20.1 144.772 20.51C144.772 20.92 144.442 21.25 144.022 21.25Z" fill="#6F7384"/>
    <path d="M142.472 16.75H138.472C138.062 16.75 137.722 16.41 137.722 16C137.722 15.59 138.062 15.25 138.472 15.25H142.472C142.882 15.25 143.222 15.59 143.222 16C143.222 16.41 142.882 16.75 142.472 16.75Z" fill="#6F7384"/>
    <path d="M150.472 22.75C148.812 22.75 147.252 21.87 146.412 20.44C145.962 19.72 145.722 18.87 145.722 18C145.722 15.38 147.852 13.25 150.472 13.25C153.092 13.25 155.222 15.38 155.222 18C155.222 18.87 154.982 19.72 154.532 20.45C153.692 21.87 152.132 22.75 150.472 22.75ZM150.472 14.75C148.682 14.75 147.222 16.21 147.222 18C147.222 18.59 147.382 19.17 147.692 19.67C148.272 20.65 149.342 21.25 150.472 21.25C151.602 21.25 152.672 20.65 153.252 19.68C153.562 19.17 153.722 18.6 153.722 18C153.722 16.21 152.262 14.75 150.472 14.75Z" fill="#6F7384"/>
    <path d="M149.902 19.74C149.712 19.74 149.522 19.67 149.372 19.52L148.382 18.53C148.092 18.24 148.092 17.76 148.382 17.47C148.672 17.18 149.152 17.18 149.442 17.47L149.922 17.95L151.522 16.47C151.822 16.19 152.302 16.21 152.582 16.51C152.862 16.81 152.842 17.29 152.542 17.57L150.412 19.54C150.262 19.67 150.082 19.74 149.902 19.74Z" fill="#6F7384"/>
    <path d="M119.396 36V27.06H122.648C123.248 27.06 123.776 27.172 124.232 27.396C124.696 27.612 125.056 27.932 125.312 28.356C125.568 28.772 125.696 29.272 125.696 29.856C125.696 30.432 125.564 30.928 125.3 31.344C125.044 31.76 124.688 32.08 124.232 32.304C123.776 32.528 123.248 32.64 122.648 32.64H120.812V36H119.396ZM120.812 31.38H122.684C123.004 31.38 123.284 31.316 123.524 31.188C123.764 31.06 123.952 30.884 124.088 30.66C124.224 30.428 124.292 30.156 124.292 29.844C124.292 29.532 124.224 29.264 124.088 29.04C123.952 28.808 123.764 28.632 123.524 28.512C123.284 28.384 123.004 28.32 122.684 28.32H120.812V31.38Z" fill="#6F7384"/>
    <path d="M128.604 36.144C128.164 36.144 127.776 36.068 127.44 35.916C127.112 35.756 126.856 35.54 126.672 35.268C126.488 34.988 126.396 34.66 126.396 34.284C126.396 33.932 126.472 33.616 126.624 33.336C126.784 33.056 127.028 32.82 127.356 32.628C127.684 32.436 128.096 32.3 128.592 32.22L130.848 31.848V32.916L128.856 33.264C128.496 33.328 128.232 33.444 128.064 33.612C127.896 33.772 127.812 33.98 127.812 34.236C127.812 34.484 127.904 34.688 128.088 34.848C128.28 35 128.524 35.076 128.82 35.076C129.188 35.076 129.508 34.996 129.78 34.836C130.06 34.676 130.276 34.464 130.428 34.2C130.58 33.928 130.656 33.628 130.656 33.3V31.632C130.656 31.312 130.536 31.052 130.296 30.852C130.064 30.644 129.752 30.54 129.36 30.54C129 30.54 128.684 30.636 128.412 30.828C128.148 31.012 127.952 31.252 127.824 31.548L126.696 30.984C126.816 30.664 127.012 30.384 127.284 30.144C127.556 29.896 127.872 29.704 128.232 29.568C128.6 29.432 128.988 29.364 129.396 29.364C129.908 29.364 130.36 29.46 130.752 29.652C131.152 29.844 131.46 30.112 131.676 30.456C131.9 30.792 132.012 31.184 132.012 31.632V36H130.716V34.824L130.992 34.86C130.84 35.124 130.644 35.352 130.404 35.544C130.172 35.736 129.904 35.884 129.6 35.988C129.304 36.092 128.972 36.144 128.604 36.144Z" fill="#6F7384"/>
    <path d="M134.233 38.652C134.073 38.652 133.913 38.636 133.753 38.604C133.601 38.58 133.461 38.54 133.333 38.484V37.32C133.429 37.344 133.545 37.364 133.681 37.38C133.817 37.404 133.949 37.416 134.077 37.416C134.453 37.416 134.729 37.332 134.905 37.164C135.089 37.004 135.253 36.752 135.397 36.408L135.829 35.424L135.805 36.564L132.997 29.508H134.449L136.525 34.92H136.033L138.097 29.508H139.561L136.693 36.708C136.541 37.092 136.349 37.428 136.117 37.716C135.893 38.012 135.625 38.24 135.313 38.4C135.009 38.568 134.649 38.652 134.233 38.652Z" fill="#6F7384"/>
    <path d="M140.549 36V29.508H141.845V30.912L141.677 30.696C141.813 30.256 142.061 29.924 142.421 29.7C142.781 29.476 143.193 29.364 143.657 29.364C144.177 29.364 144.637 29.504 145.037 29.784C145.445 30.056 145.717 30.42 145.853 30.876L145.469 30.912C145.661 30.392 145.953 30.004 146.345 29.748C146.745 29.492 147.201 29.364 147.713 29.364C148.161 29.364 148.565 29.468 148.925 29.676C149.293 29.884 149.585 30.172 149.801 30.54C150.017 30.908 150.125 31.328 150.125 31.8V36H148.769V32.172C148.769 31.844 148.709 31.568 148.589 31.344C148.477 31.112 148.317 30.936 148.109 30.816C147.909 30.688 147.673 30.624 147.401 30.624C147.129 30.624 146.889 30.688 146.681 30.816C146.473 30.936 146.309 31.112 146.189 31.344C146.069 31.576 146.009 31.852 146.009 32.172V36H144.665V32.172C144.665 31.844 144.605 31.568 144.485 31.344C144.373 31.112 144.213 30.936 144.005 30.816C143.805 30.688 143.565 30.624 143.285 30.624C143.013 30.624 142.773 30.688 142.565 30.816C142.357 30.936 142.193 31.112 142.073 31.344C141.961 31.576 141.905 31.852 141.905 32.172V36H140.549Z" fill="#6F7384"/>
    <path d="M154.685 36.144C154.037 36.144 153.461 35.996 152.957 35.7C152.461 35.396 152.073 34.988 151.793 34.476C151.513 33.956 151.373 33.376 151.373 32.736C151.373 32.08 151.513 31.5 151.793 30.996C152.081 30.492 152.465 30.096 152.945 29.808C153.425 29.512 153.969 29.364 154.577 29.364C155.065 29.364 155.501 29.448 155.885 29.616C156.269 29.784 156.593 30.016 156.857 30.312C157.121 30.6 157.321 30.932 157.457 31.308C157.601 31.684 157.673 32.084 157.673 32.508C157.673 32.612 157.669 32.72 157.661 32.832C157.653 32.944 157.637 33.048 157.613 33.144H152.441V32.064H156.845L156.197 32.556C156.277 32.164 156.249 31.816 156.113 31.512C155.985 31.2 155.785 30.956 155.513 30.78C155.249 30.596 154.937 30.504 154.577 30.504C154.217 30.504 153.897 30.596 153.617 30.78C153.337 30.956 153.121 31.212 152.969 31.548C152.817 31.876 152.757 32.276 152.789 32.748C152.749 33.188 152.809 33.572 152.969 33.9C153.137 34.228 153.369 34.484 153.665 34.668C153.969 34.852 154.313 34.944 154.697 34.944C155.089 34.944 155.421 34.856 155.693 34.68C155.973 34.504 156.193 34.276 156.353 33.996L157.457 34.536C157.329 34.84 157.129 35.116 156.857 35.364C156.593 35.604 156.273 35.796 155.897 35.94C155.529 36.076 155.125 36.144 154.685 36.144Z" fill="#6F7384"/>
    <path d="M159.056 36V29.508H160.352V30.78L160.196 30.612C160.356 30.204 160.612 29.896 160.964 29.688C161.316 29.472 161.724 29.364 162.188 29.364C162.668 29.364 163.092 29.468 163.46 29.676C163.828 29.884 164.116 30.172 164.324 30.54C164.532 30.908 164.636 31.332 164.636 31.812V36H163.292V32.172C163.292 31.844 163.232 31.568 163.112 31.344C162.992 31.112 162.82 30.936 162.596 30.816C162.38 30.688 162.132 30.624 161.852 30.624C161.572 30.624 161.32 30.688 161.096 30.816C160.88 30.936 160.712 31.112 160.592 31.344C160.472 31.576 160.412 31.852 160.412 32.172V36H159.056Z" fill="#6F7384"/>
    <path d="M168.955 36.072C168.275 36.072 167.747 35.88 167.371 35.496C166.995 35.112 166.807 34.572 166.807 33.876V30.732H165.667V29.508H165.847C166.151 29.508 166.387 29.42 166.555 29.244C166.723 29.068 166.807 28.828 166.807 28.524V28.02H168.163V29.508H169.639V30.732H168.163V33.816C168.163 34.04 168.199 34.232 168.271 34.392C168.343 34.544 168.459 34.664 168.619 34.752C168.779 34.832 168.987 34.872 169.243 34.872C169.307 34.872 169.379 34.868 169.459 34.86C169.539 34.852 169.615 34.844 169.687 34.836V36C169.575 36.016 169.451 36.032 169.315 36.048C169.179 36.064 169.059 36.072 168.955 36.072Z" fill="#6F7384"/>
    <path d="M256.782 16.95C256.592 16.95 256.402 16.88 256.252 16.73L254.752 15.23C254.462 14.94 254.462 14.46 254.752 14.17C255.042 13.88 255.522 13.88 255.812 14.17L256.782 15.14L260.252 11.67C260.542 11.38 261.022 11.38 261.312 11.67C261.602 11.96 261.602 12.44 261.312 12.73L257.312 16.73C257.172 16.88 256.972 16.95 256.782 16.95Z" fill="#6F7384"/>
    <path d="M259.972 6.75H255.972C255.012 6.75 253.222 6.75 253.222 4C253.222 1.25 255.012 1.25 255.972 1.25H259.972C260.932 1.25 262.722 1.25 262.722 4C262.722 4.96 262.722 6.75 259.972 6.75ZM255.972 2.75C254.982 2.75 254.722 2.75 254.722 4C254.722 5.25 254.982 5.25 255.972 5.25H259.972C261.222 5.25 261.222 4.99 261.222 4C261.222 2.75 260.962 2.75 259.972 2.75H255.972Z" fill="#6F7384"/>
    <path d="M260.972 22.75H254.972C249.352 22.75 248.222 20.17 248.222 16V10C248.222 5.44 249.872 3.49 253.932 3.28C254.342 3.26 254.702 3.57 254.722 3.99C254.742 4.41 254.422 4.75 254.012 4.77C251.172 4.93 249.722 5.78 249.722 10V16C249.722 19.7 250.452 21.25 254.972 21.25H260.972C265.492 21.25 266.222 19.7 266.222 16V10C266.222 5.78 264.772 4.93 261.932 4.77C261.522 4.75 261.202 4.39 261.222 3.98C261.242 3.57 261.592 3.25 262.012 3.27C266.072 3.49 267.722 5.44 267.722 9.99V15.99C267.722 20.17 266.592 22.75 260.972 22.75Z" fill="#6F7384"/>
    <path d="M237.396 36V27.06H240.648C241.248 27.06 241.776 27.172 242.232 27.396C242.688 27.612 243.044 27.932 243.3 28.356C243.564 28.772 243.696 29.272 243.696 29.856C243.696 30.472 243.54 31 243.228 31.44C242.924 31.88 242.512 32.2 241.992 32.4L244.056 36H242.448L240.252 32.1L241.176 32.64H238.812V36H237.396ZM238.812 31.38H240.672C241 31.38 241.284 31.316 241.524 31.188C241.764 31.06 241.948 30.884 242.076 30.66C242.212 30.428 242.28 30.156 242.28 29.844C242.28 29.532 242.212 29.264 242.076 29.04C241.948 28.808 241.764 28.632 241.524 28.512C241.284 28.384 241 28.32 240.672 28.32H238.812V31.38Z" fill="#6F7384"/>
    <path d="M247.86 36.144C247.212 36.144 246.636 35.996 246.132 35.7C245.636 35.396 245.248 34.988 244.968 34.476C244.688 33.956 244.548 33.376 244.548 32.736C244.548 32.08 244.688 31.5 244.968 30.996C245.256 30.492 245.64 30.096 246.12 29.808C246.6 29.512 247.144 29.364 247.752 29.364C248.24 29.364 248.676 29.448 249.06 29.616C249.444 29.784 249.768 30.016 250.032 30.312C250.296 30.6 250.496 30.932 250.632 31.308C250.776 31.684 250.848 32.084 250.848 32.508C250.848 32.612 250.844 32.72 250.836 32.832C250.828 32.944 250.812 33.048 250.788 33.144H245.616V32.064H250.02L249.372 32.556C249.452 32.164 249.424 31.816 249.288 31.512C249.16 31.2 248.96 30.956 248.688 30.78C248.424 30.596 248.112 30.504 247.752 30.504C247.392 30.504 247.072 30.596 246.792 30.78C246.512 30.956 246.296 31.212 246.144 31.548C245.992 31.876 245.932 32.276 245.964 32.748C245.924 33.188 245.984 33.572 246.144 33.9C246.312 34.228 246.544 34.484 246.84 34.668C247.144 34.852 247.488 34.944 247.872 34.944C248.264 34.944 248.596 34.856 248.868 34.68C249.148 34.504 249.368 34.276 249.528 33.996L250.632 34.536C250.504 34.84 250.304 35.116 250.032 35.364C249.768 35.604 249.448 35.796 249.072 35.94C248.704 36.076 248.3 36.144 247.86 36.144Z" fill="#6F7384"/>
    <path d="M253.998 36L251.454 29.508H252.93L254.886 34.8H254.346L256.302 29.508H257.79L255.234 36H253.998Z" fill="#6F7384"/>
    <path d="M258.772 36V29.508H260.128V36H258.772ZM258.772 28.62V27.06H260.128V28.62H258.772Z" fill="#6F7384"/>
    <path d="M264.822 36.144C264.174 36.144 263.598 35.996 263.094 35.7C262.598 35.396 262.21 34.988 261.93 34.476C261.65 33.956 261.51 33.376 261.51 32.736C261.51 32.08 261.65 31.5 261.93 30.996C262.218 30.492 262.602 30.096 263.082 29.808C263.562 29.512 264.106 29.364 264.714 29.364C265.202 29.364 265.638 29.448 266.022 29.616C266.406 29.784 266.73 30.016 266.994 30.312C267.258 30.6 267.458 30.932 267.594 31.308C267.738 31.684 267.81 32.084 267.81 32.508C267.81 32.612 267.806 32.72 267.798 32.832C267.79 32.944 267.774 33.048 267.75 33.144H262.578V32.064H266.982L266.334 32.556C266.414 32.164 266.386 31.816 266.25 31.512C266.122 31.2 265.922 30.956 265.65 30.78C265.386 30.596 265.074 30.504 264.714 30.504C264.354 30.504 264.034 30.596 263.754 30.78C263.474 30.956 263.258 31.212 263.106 31.548C262.954 31.876 262.894 32.276 262.926 32.748C262.886 33.188 262.946 33.572 263.106 33.9C263.274 34.228 263.506 34.484 263.802 34.668C264.106 34.852 264.45 34.944 264.834 34.944C265.226 34.944 265.558 34.856 265.83 34.68C266.11 34.504 266.33 34.276 266.49 33.996L267.594 34.536C267.466 34.84 267.266 35.116 266.994 35.364C266.73 35.604 266.41 35.796 266.034 35.94C265.666 36.076 265.262 36.144 264.822 36.144Z" fill="#6F7384"/>
    <path d="M270.765 36L268.533 29.508H269.973L271.677 34.68H271.173L272.913 29.508H274.149L275.877 34.68H275.373L277.089 29.508H278.529L276.285 36H275.061L273.309 30.708H273.753L272.001 36H270.765Z" fill="#6F7384"/>
</svg>