<svg xmlns="http://www.w3.org/2000/svg" width="32" height="32" viewBox="0 0 32 32" fill="none">
    <path fill-rule="evenodd" clip-rule="evenodd" d="M12.5215 20.6176C14.4671 20.6176 16.1112 22.2623 16.1112 24.2088C16.1112 26.1552 14.4671 27.8 12.5215 27.8C10.5758 27.8 8.93173 26.1552 8.93173 24.2088C8.93173 22.2623 10.5758 20.6176 12.5215 20.6176ZM22.265 20.6176C24.2106 20.6176 25.8547 22.2623 25.8547 24.2088C25.8547 26.1552 24.2106 27.8 22.265 27.8C20.3194 27.8 18.6753 26.1552 18.6753 24.2088C18.6753 22.2623 20.3194 20.6176 22.265 20.6176ZM12.5215 22.6697C11.702 22.6697 10.983 23.389 10.983 24.2088C10.983 25.0286 11.702 25.7479 12.5215 25.7479C13.3409 25.7479 14.0599 25.0286 14.0599 24.2088C14.0599 23.389 13.3404 22.6697 12.5215 22.6697ZM22.265 22.6697C21.4455 22.6697 20.7266 23.389 20.7266 24.2088C20.7266 25.0286 21.4455 25.7479 22.265 25.7479C23.0845 25.7479 23.8035 25.0286 23.8035 24.2088C23.8035 23.389 23.084 22.6697 22.265 22.6697ZM5.46149 4.20001C6.48507 4.20001 7.35892 4.96546 7.49481 5.98075C7.49634 5.99222 7.49767 6.00368 7.49882 6.01511L7.63193 7.01419L28.2183 5.21222C28.7221 5.16612 29.1698 5.49369 29.2971 5.96401C29.3267 6.07206 29.3389 6.1865 29.3309 6.30374L29.3287 6.33106L29.3255 6.36039L28.0844 16.4409L28.0814 16.4682C27.964 17.4229 27.1829 18.1771 26.225 18.2617L26.212 18.2627L10.2459 19.6603C10.2348 19.6617 10.2235 19.6628 10.2122 19.6638L10.1711 19.6668L9.56557 19.7198C9.53583 19.7223 9.50506 19.7239 9.47532 19.7239C9.20727 19.7239 8.95958 19.6193 8.77491 19.4462C7.7875 19.0414 7.04437 18.134 6.89379 17.0032C6.89246 16.9933 6.89128 16.9834 6.89025 16.9734L5.7304 8.27396C5.72895 8.2642 5.72763 8.2544 5.72645 8.24455L5.46097 6.25265H3.69226C3.12611 6.25265 2.66663 5.79298 2.66663 5.22659C2.66663 4.6602 3.12611 4.20053 3.69226 4.20053L5.43014 4.20048C5.44055 4.20017 5.451 4.20001 5.46149 4.20001ZM26.8666 7.63478L8.16663 9.27158L9.16217 16.7412L9.16261 16.7452L9.1651 16.762C9.24402 17.2731 9.70516 17.6333 10.2123 17.6054L25.8071 16.2403L26.8666 7.63478Z" fill="#1E1F2E"/>
</svg>